<?xml version="1.0" encoding="UTF-8"?>
<svg xmlns="http://www.w3.org/2000/svg" viewBox="0 0 180 180" width="180" height="180">
  <defs>
    <linearGradient id="bg" x1="0" y1="0" x2="1" y2="1">
      <stop offset="0%" stop-color="#c1131d"/>
      <stop offset="100%" stop-color="#8a0a12"/>
    </linearGradient>
  </defs>
  <rect width="180" height="180" rx="32" fill="url(#bg)"/>
  <g transform="translate(30,38)">
    <path d="M10 12 L92 12 L92 116 L10 116 Z" fill="#f4eee2" opacity="0.85"/>
    <path d="M22 18 L120 18 L120 122 L22 122 Z" fill="#ffffff" stroke="#0a0a0a" stroke-width="3.5" stroke-linejoin="round"/>
    <rect x="30" y="28" width="84" height="14" fill="#c1131d"/>
    <rect x="30" y="54" width="84" height="6" rx="3" fill="#0a0a0a" opacity="0.85"/>
    <rect x="30" y="66" width="72" height="5" rx="2.5" fill="#0a0a0a" opacity="0.6"/>
    <rect x="30" y="76" width="80" height="5" rx="2.5" fill="#0a0a0a" opacity="0.6"/>
    <rect x="30" y="86" width="60" height="5" rx="2.5" fill="#0a0a0a" opacity="0.6"/>
    <rect x="30" y="96" width="76" height="5" rx="2.5" fill="#0a0a0a" opacity="0.6"/>
    <rect x="30" y="106" width="50" height="5" rx="2.5" fill="#0a0a0a" opacity="0.6"/>
  </g>
</svg>
